<svg xmlns="http://www.w3.org/2000/svg" width="32" height="32" viewBox="0 0 32 32">
    <g fill="#AFBED6" fill-rule="nonzero">
        <path d="M15.888 19.07a3.186 3.186 0 0 0 3.182-3.181 3.17 3.17 0 0 0-.602-1.854 3.177 3.177 0 0 0-2.578-1.327c-1.062 0-2 .525-2.58 1.326a3.166 3.166 0 0 0-.602 1.854 3.183 3.183 0 0 0 3.18 3.181zM22.834 11.997V8.934l-.399.002-2.665.008.01 3.064z"/>
        <path d="M15.889 0C7.128 0 0 7.128 0 15.889c0 8.76 7.128 15.888 15.889 15.888 8.76 0 15.888-7.128 15.888-15.888C31.777 7.128 24.65 0 15.89 0zm9.036 14.035v7.398a3.496 3.496 0 0 1-3.493 3.493H10.345a3.496 3.496 0 0 1-3.493-3.493V10.345a3.496 3.496 0 0 1 3.493-3.492h11.087a3.496 3.496 0 0 1 3.493 3.493v3.689z"/>
        <path d="M20.831 15.889a4.949 4.949 0 0 1-4.942 4.942 4.948 4.948 0 0 1-4.942-4.942c0-.656.13-1.282.363-1.854H8.612v7.398c0 .956.777 1.73 1.732 1.73h11.087c.954 0 1.732-.774 1.732-1.73v-7.398h-2.699c.235.572.367 1.198.367 1.854z"/>
    </g>
</svg>
