<?xml version="1.0" encoding="UTF-8"?>
<svg width="24px" height="34px" viewBox="0 0 24 34" version="1.1" xmlns="http://www.w3.org/2000/svg" xmlns:xlink="http://www.w3.org/1999/xlink">
    <!-- Generator: Sketch 45.2 (43514) - http://www.bohemiancoding.com/sketch -->
    <title>ic_location_on_black_48px copy 8</title>
    <desc>Created with Sketch.</desc>
    <defs></defs>
    <g id="Page-1" stroke="none" stroke-width="1" fill="none" fill-rule="evenodd">
        <g id="Unidade" transform="translate(-151.000000, -639.000000)">
            <g id="ic_location_on_black_48px-copy-8" transform="translate(143.000000, 636.000000)">
                <path d="M20,3.33333333 C13.55,3.33333333 8.33333333,8.55 8.33333333,15 C8.33333333,23.75 20,36.6666667 20,36.6666667 C20,36.6666667 31.6666667,23.75 31.6666667,15 C31.6666667,8.55 26.45,3.33333333 20,3.33333333 Z M20,19.1666667 C17.7,19.1666667 15.8333333,17.3 15.8333333,15 C15.8333333,12.7 17.7,10.8333333 20,10.8333333 C22.3,10.8333333 24.1666667,12.7 24.1666667,15 C24.1666667,17.3 22.3,19.1666667 20,19.1666667 Z" id="Shape" fill="#0065E1" fill-rule="nonzero"></path>
                <polygon id="Shape" points="0 0 40 0 40 40 0 40"></polygon>
            </g>
        </g>
    </g>
</svg>