<?xml version="1.0" encoding="UTF-8"?>
<svg width="98px" height="24px" viewBox="0 0 98 24" version="1.1" xmlns="http://www.w3.org/2000/svg" xmlns:xlink="http://www.w3.org/1999/xlink">
    <!-- Generator: Sketch 45.2 (43514) - http://www.bohemiancoding.com/sketch -->
    <title>logo_dancacom</title>
    <desc>Created with Sketch.</desc>
    <defs></defs>
    <g id="Symbols" stroke="none" stroke-width="1" fill="none" fill-rule="evenodd">
        <g id="menu_01" transform="translate(-16.000000, -12.000000)">
            <g id="logo_dancacom" transform="translate(16.000000, 12.000000)">
                <g id="Group-2">
                    <path d="M36.9967516,11.2963521 C36.5240978,10.4673039 35.4606269,9.93972772 34.3434454,9.93972772 C31.9049818,9.918194 29.9928826,11.4363213 29.9928826,14.3218399 C29.9928826,17.2611927 31.8190447,18.7793201 34.2897347,18.7685532 C35.2243001,18.7470195 36.5240978,18.2732776 36.9967516,17.2934933 L37.0934308,18.5209154 L39.0377564,18.5209154 L39.0377564,10.1550649 L37.0612044,10.1550649 L36.9967516,11.2963521 Z M34.5153195,16.8520521 C33.1403268,16.8520521 32.0446295,15.9045683 32.0446295,14.311073 C32.0446295,12.7175777 33.1403268,11.7808608 34.5153195,11.7808608 C37.770185,11.7808608 37.770185,16.8520521 34.5153195,16.8520521 Z" id="Shape-Copy-79" fill="#0065E1" fill-rule="nonzero"></path>
                    <path d="M44.6589217,9.93950178 C43.6061929,9.93950178 42.7683068,10.3594093 41.9196785,11.1992244 L41.7800308,10.0579372 L39.9323843,10.0579372 L39.9323843,18.4345546 L41.9841312,18.4345546 L41.9841312,14.160111 C41.9841312,12.8896215 42.8435017,11.8237023 44.1218152,11.8237023 C45.4430972,11.8237023 46.1413357,12.7927198 46.1413357,14.0632093 L46.1413357,18.4453214 L48.2038248,18.4453214 L48.2038248,14.0524424 C48.1930826,11.4145616 46.6139895,9.93950178 44.6589217,9.93950178 Z" id="Shape-Copy-80" fill="#0065E1" fill-rule="nonzero"></path>
                    <path d="M56.2996424,17.476304 L54.9139076,16.1196796 C54.4090274,16.625722 53.7430154,16.8195255 53.0877454,16.8195255 C51.7986898,16.8195255 50.7137346,15.9689436 50.7137346,14.3754482 C50.7137346,12.9111552 51.734237,11.8990704 53.1199718,11.8990704 C53.7000468,11.8990704 54.3016061,12.1144076 54.7957441,12.5558488 L56.0955419,11.1776907 C55.1824608,10.2840413 54.2693798,9.93950178 53.0877454,9.93950178 C50.6707661,9.93950178 48.6512456,11.4037948 48.6512456,14.3646814 C48.6512456,16.8087587 49.9940119,18.2192174 51.820174,18.6391249 L51.2938096,20.1464854 L51.7879476,20.5233255 C52.4324755,20.0818842 53.4100093,20.4694912 53.2273931,21.1047359 C53.0232926,21.7615144 51.7020106,21.6861464 51.2078726,21.0401348 L50.3055336,21.7830481 C51.3367782,23.4088441 54.3660589,23.2473412 54.7957441,21.3416069 C54.946134,20.5125586 54.6131279,19.4897069 53.055519,19.4466395 L53.2596195,18.8006278 C54.4197696,18.7683273 55.3758192,18.3914871 56.2996424,17.476304 Z" id="Shape-Copy-81" fill="#0065E1" fill-rule="nonzero"></path>
                    <path d="M62.8045808,11.2963521 C62.331927,10.4673039 61.2684561,9.93972772 60.1512746,9.93972772 C57.712811,9.918194 55.8007117,11.4363213 55.8007117,14.3218399 C55.8007117,17.2611927 57.6268739,18.7793201 60.0975639,18.7685532 C61.0321293,18.7470195 62.331927,18.2732776 62.8045808,17.2934933 L62.9012599,18.5209154 L64.8455855,18.5209154 L64.8455855,10.1550649 L62.8797757,10.1550649 L62.8045808,11.2963521 Z M60.3338908,16.8520521 C58.9588981,16.8520521 57.8632008,15.9045683 57.8632008,14.311073 C57.8632008,12.7175777 58.9588981,11.7808608 60.3338908,11.7808608 C63.5887563,11.7808608 63.5887563,16.8520521 60.3338908,16.8520521 Z" id="Shape-Copy-82" fill="#0065E1" fill-rule="nonzero"></path>
                    <path d="M65.7402135,17.4283536 C65.7402135,19.0433827 68.1786771,19.0433827 68.1786771,17.4283536 C68.1786771,15.8133246 65.7402135,15.8133246 65.7402135,17.4283536 Z" id="Shape-Copy-83" fill="#AFBED6" fill-rule="nonzero"></path>
                    <path d="M8.94186443,8.89323843 C8.94186443,8.90400529 8.95260656,8.92553902 8.95260656,8.93630588 C8.38327365,8.93630588 7.71726156,9.0655082 7.52390322,9.10857564 C5.40770353,9.53925005 3.37744088,10.2821634 1.91651114,11.8433582 C0.724134668,13.1138477 0.305191582,14.9011465 0.101091104,16.5484761 C-0.188946417,18.874118 -0.00633020005,22.2549121 2.71142879,22.9762918 C3.69970479,22.9224575 5.02098683,22.1580104 5.86961513,21.4689313 C4.97801831,20.8982877 4.64501227,19.7570005 4.47313818,18.7987499 C4.14013214,17.0006843 4.30126409,15.0303488 4.93504979,13.3076512 C5.20360305,12.5862715 5.60106187,11.9079593 6.11668413,11.3265489 C6.55711148,10.8205064 7.2016393,10.4867338 7.9428463,10.239096 C8.4369843,10.0775931 8.61960052,9.96992447 9.16744917,9.89455645 L9.16744917,9.90532331 L9.16744917,9.90532331 C9.09225425,9.53925005 9.00631721,9.14087622 8.94186443,8.89323843 L8.94186443,8.89323843 Z" id="Shape-Copy-85" fill="#AFBED6" fill-rule="nonzero"></path>
                    <path d="M75.7944324,17.6139362 C74.9028356,18.4968187 73.9575281,18.8413583 72.8188623,18.8413583 C70.573757,18.8413583 68.7046263,17.4847338 68.7046263,14.7391845 C68.7046263,11.9936351 70.573757,10.6370107 72.8188623,10.6370107 C73.9145596,10.6370107 74.7631879,10.9492496 75.6118162,11.7890647 L74.4086976,13.0595543 C73.9575281,12.6504136 73.3881952,12.4458432 72.8510887,12.4458432 C71.562033,12.4458432 70.6274677,13.3933269 70.6274677,14.7391845 C70.6274677,16.2142443 71.6264858,17.0002251 72.8188623,17.0002251 C73.4311637,17.0002251 74.0434651,16.8279554 74.5161189,16.3542135 L75.7944324,17.6139362 Z" id="Shape-Copy-86" fill="#AFBED6" fill-rule="nonzero"></path>
                    <path d="M84.4230799,14.6745833 C84.4230799,16.9033234 82.8976974,18.7121559 80.394781,18.7121559 C77.8918646,18.7121559 76.3772242,16.9033234 76.3772242,14.6745833 C76.3772242,12.4566101 77.9133488,10.6370107 80.3732967,10.6370107 C82.8439867,10.6370107 84.4230799,12.4566101 84.4230799,14.6745833 Z M78.2893234,14.6745833 C78.2893234,15.8481711 78.998304,16.9571577 80.394781,16.9571577 C81.7912579,16.9571577 82.5002385,15.8589379 82.5002385,14.6745833 C82.5002385,13.5117624 81.6838366,12.3812421 80.394781,12.3812421 C79.0090461,12.3812421 78.2893234,13.5117624 78.2893234,14.6745833 Z" id="Shape-Copy-87" fill="#AFBED6" fill-rule="nonzero"></path>
                    <path d="M90.9283326,18.5183524 L90.9283326,14.3731112 C90.9283326,13.3502595 90.3912261,12.4243095 89.3492395,12.4243095 C88.317995,12.4243095 87.7056935,13.3502595 87.7056935,14.3731112 L87.7056935,18.5183524 L85.7935943,18.5183524 L85.7935943,10.7554461 L87.5660458,10.7554461 L87.7056935,11.7029298 C88.1138945,10.916949 89.0054913,10.6370107 89.7466983,10.6370107 C90.6705215,10.6370107 91.5943447,11.0138508 92.0347721,12.07977 C92.7222684,10.9815502 93.6138652,10.6693113 94.6236255,10.6693113 C96.8150201,10.6693113 97.8999753,12.0259357 97.8999753,14.3515775 L97.8999753,18.5291193 L95.9878761,18.5291193 L95.9878761,14.3515775 C95.9878761,13.3287258 95.568933,12.4673769 94.5269463,12.4673769 C93.4957018,12.4673769 92.851174,13.3610263 92.851174,14.3838781 L92.851174,18.5291193 L90.9283326,18.5291193 L90.9283326,18.5183524 Z" id="Shape-Copy-88" fill="#AFBED6" fill-rule="nonzero"></path>
                    <path d="M27.38452,11.2560845 C26.890382,10.3947356 25.5261314,9.92099378 24.6452767,9.92099378 C22.2068131,9.92099378 20.4021352,11.4175874 20.4021352,14.3031059 C20.4021352,17.0486553 22.2497817,18.6744512 24.6989874,18.6744512 C25.7194898,18.6744512 26.7507343,18.3406786 27.3952621,17.3393606 L27.5349098,18.4914146 L29.4684933,18.4914146 L29.4684933,6.62633452 L27.4060043,6.62633452 L27.4060043,11.2560845 L27.38452,11.2560845 Z M24.827893,16.7579501 C23.5066109,16.7579501 22.4538821,15.7566321 22.4538821,14.3031059 C22.4538821,12.7957455 23.5066109,11.8590286 24.827893,11.8590286 C26.1276907,11.8590286 27.2448723,12.8388129 27.2448723,14.3031059 C27.2556144,15.7996995 26.1384329,16.7579501 24.827893,16.7579501 Z" id="Shape-Copy-78" fill="#0065E1" fill-rule="nonzero"></path>
                    <path d="M13.7949834,9.51103352 C13.1934241,6.313276 11.9151106,3.18011964 10.2285961,0.348435375 C9.63777893,-0.642115775 5.65244855,0.746809208 5.93174394,1.2097842 C7.34970516,3.58926034 8.49911311,6.2056074 9.18660945,8.90808934 L9.18660945,8.90808934 C9.18660945,8.90808934 9.40145206,9.72637073 9.50887337,10.4046829 L9.50887337,10.4154498 C9.69148958,11.4275347 9.80965302,12.4503864 9.84187941,13.4732381 C9.91707432,16.024984 9.08993028,18.7597665 7.30673663,20.7193351 L7.30673663,20.730102 C7.30673663,20.730102 7.28525237,20.7516357 7.24228385,20.7947032 C6.9415042,21.117709 6.60849816,21.4299479 6.25400785,21.7098863 C5.97471246,21.9252235 4.3633929,23.2387804 3.13879004,23.3033816 C3.29992199,23.3464491 3.48253821,23.3787496 3.66515443,23.4110502 C6.87705142,23.8201909 10.0674641,22.1082601 11.9151106,19.7180171 C14.2139265,16.7571305 14.4502534,13.02103 13.7949834,9.51103352 Z" id="Shape-Copy-84" fill="#0065E1" fill-rule="nonzero"></path>
                </g>
            </g>
        </g>
    </g>
</svg>