<?xml version="1.0" encoding="UTF-8"?>
<svg width="23px" height="20px" viewBox="0 0 23 20" version="1.1" xmlns="http://www.w3.org/2000/svg" xmlns:xlink="http://www.w3.org/1999/xlink">
    <!-- Generator: Sketch 45.2 (43514) - http://www.bohemiancoding.com/sketch -->
    <title>ic_thumb_up_black_24px copy 4</title>
    <desc>Created with Sketch.</desc>
    <defs></defs>
    <g id="Page-1" stroke="none" stroke-width="1" fill="none" fill-rule="evenodd">
        <g id="Professor" transform="translate(-38.000000, -2042.000000)">
            <g id="Group-11" transform="translate(14.000000, 1448.000000)">
                <g id="ic_thumb_up_black_24px-copy-4" transform="translate(23.000000, 593.000000)">
                    <polygon id="Shape" points="0 0 24.9037657 0 24.9037657 24 0 24"></polygon>
                    <path d="M1.0376569,21 L5.18828452,21 L5.18828452,9 L1.0376569,9 L1.0376569,21 Z M23.8661088,10 C23.8661088,8.9 22.9322176,8 21.790795,8 L15.2431799,8 L16.228954,3.43 L16.2600837,3.11 C16.2600837,2.7 16.083682,2.32 15.8035146,2.05 L14.7035983,1 L7.8758159,7.59 C7.49188285,7.95 7.26359833,8.45 7.26359833,9 L7.26359833,19 C7.26359833,20.1 8.19748954,21 9.33891213,21 L18.6778243,21 C19.5390795,21 20.2758159,20.5 20.587113,19.78 L23.7208368,12.73 C23.8142259,12.5 23.8661088,12.26 23.8661088,12 L23.8661088,10.09 L23.8557322,10.08 L23.8661088,10 Z" id="Shape" fill="#0065E1" fill-rule="nonzero"></path>
                </g>
            </g>
        </g>
    </g>
</svg>