<svg xmlns="http://www.w3.org/2000/svg" width="32" height="32" viewBox="0 0 32 32"><g fill="#AFBED6"><path d="M13.76 18.522l-.32-.218a3.622 3.622 0 0 0-1.013-.154h-.042c-1.61 0-3.02.973-3.02 2.084 0 1.21 1.21 2.155 2.751 2.155 2.035 0 3.066-.703 3.066-2.085 0-.13-.015-.266-.048-.403-.138-.536-.63-.87-1.374-1.38zm-1.14-4.217h.001c.385 0 .71-.151.961-.44.394-.449.569-1.186.465-1.969-.182-1.399-1.182-2.564-2.226-2.594h-.042c-.37 0-.699.151-.949.438-.388.444-.553 1.146-.451 1.928.183 1.398 1.204 2.605 2.226 2.637h.015z"/><path d="M15.889 0C7.128 0 0 7.128 0 15.889c0 8.76 7.128 15.888 15.889 15.888 8.76 0 15.888-7.128 15.888-15.888C31.777 7.128 24.65 0 15.89 0zm-1.832 23.626a6.96 6.96 0 0 1-1.932.26 8.853 8.853 0 0 1-2.169-.258c-1.316-.333-2.289-.962-2.743-1.774a2.257 2.257 0 0 1-.295-1.112c0-.398.095-.803.283-1.203.722-1.538 2.623-2.572 4.73-2.572h.06a1.876 1.876 0 0 1-.189-1.441c-2.209-.05-3.862-1.668-3.862-3.801 0-1.506 1.204-2.974 2.925-3.566a4.773 4.773 0 0 1 1.557-.27h4.725c.16 0 .303.105.353.258a.37.37 0 0 1-.135.414l-1.057.765a.378.378 0 0 1-.218.07h-.378c.488.585.774 1.42.774 2.358 0 1.034-.523 2.013-1.476 2.759-.736.573-.765.731-.765 1.058.01.18.522.767 1.087 1.167 1.318.932 1.808 1.846 1.808 3.372 0 1.594-1.21 2.972-3.083 3.516zm10.67-8.104a.372.372 0 0 1-.372.371H21.67v2.686a.372.372 0 0 1-.37.371h-.764a.372.372 0 0 1-.373-.37v-2.687H17.48a.37.37 0 0 1-.37-.371v-.764c0-.204.166-.372.37-.372h2.683v-2.684c0-.205.167-.37.373-.37h.764a.37.37 0 0 1 .37.37v2.684h2.685a.37.37 0 0 1 .37.371v.765h.001z"/></g></svg>