<svg width="22" height="20" viewBox="0 0 22 20" xmlns="http://www.w3.org/2000/svg"><title>ic_thumb_up_black_24px copy 3</title><g fill="none" fill-rule="evenodd"><path d="M-1-1h24v24H-1z"/><path d="M1 9V8L0 9h1zm2 0h1L3 8v1zm0 10v1l1-1H3zm-2 0H0l1 1v-1zm0 0V9h2v10H1zM20.999 8.948A1.006 1.006 0 0 0 20 8h-7.54l1.192-5.73.018-.16a.503.503 0 0 0-.144-.35l-.352-.349-5.887 5.896A.955.955 0 0 0 7 8v10c0 .548.452 1 1 1h9a.99.99 0 0 0 .92-.614l3.009-7.02A.976.976 0 0 0 21 11V9.504l-.063-.063.062-.493z" stroke="#AFBED6" stroke-width="2"/></g></svg>