<svg width="23" height="20" viewBox="0 0 23 20" xmlns="http://www.w3.org/2000/svg"><title>ic_thumb_up_black_24px copy 4</title><g fill="none" fill-rule="evenodd"><path d="M-1-1h24.904v24H-1z"/><path d="M.038 20h4.15V8H.038v12zM22.866 9c0-1.1-.934-2-2.075-2h-6.548l.986-4.57.031-.32c0-.41-.176-.79-.456-1.06L13.704 0 6.876 6.59A1.92 1.92 0 0 0 6.264 8v10c0 1.1.933 2 2.075 2h9.339c.861 0 1.598-.5 1.91-1.22l3.133-7.05c.093-.23.145-.47.145-.73V9.09l-.01-.01.01-.08z" fill="#0065E1" fill-rule="nonzero"/></g></svg>